<svg width="29" height="29" viewBox="0 0 29 29" fill="none" xmlns="http://www.w3.org/2000/svg">
<path fill-rule="evenodd" clip-rule="evenodd" d="M23.9733 21.9833C23.9733 25.966 18.5116 26.4264 14.4045 26.4264L14.1105 26.4261C11.4938 26.4198 4.83325 26.2546 4.83325 21.9592C4.83325 18.0578 10.0754 17.5364 14.1513 17.5167L14.6984 17.5164C17.3149 17.5227 23.9733 17.688 23.9733 21.9833ZM14.4045 19.3286C9.25575 19.3286 6.64575 20.2131 6.64575 21.9592C6.64575 23.7209 9.25575 24.6139 14.4045 24.6139C19.552 24.6139 22.1608 23.7294 22.1608 21.9833C22.1608 20.2216 19.552 19.3286 14.4045 19.3286ZM14.4045 2.41632C17.9425 2.41632 20.8195 5.29457 20.8195 8.83257C20.8195 12.3706 17.9425 15.2476 14.4045 15.2476H14.3658C10.835 15.2367 7.97492 12.3573 7.98696 8.82895C7.98696 5.29457 10.8653 2.41632 14.4045 2.41632ZM14.4045 4.14182C11.8174 4.14182 9.71248 6.24553 9.71248 8.83257C9.70404 11.4112 11.7933 13.5137 14.3694 13.5233L14.4045 14.3861V13.5233C16.9903 13.5233 19.094 11.4184 19.094 8.83257C19.094 6.24553 16.9903 4.14182 14.4045 4.14182Z" fill="#4F7B39"/>
</svg>
