<svg width="30" height="30" viewBox="0 0 30 30" fill="none" xmlns="http://www.w3.org/2000/svg">
<path fill-rule="evenodd" clip-rule="evenodd" d="M15.2935 5.04878C17.326 3.76378 20.026 3.40878 22.3585 4.15628C27.4322 5.79253 29.0072 11.3238 27.5985 15.725C25.4247 22.6375 16.141 27.7938 15.7472 28.01C15.6072 28.0875 15.4522 28.1263 15.2972 28.1263C15.1422 28.1263 14.9885 28.0888 14.8485 28.0125C14.4572 27.7988 5.24095 22.7188 2.9947 15.7263C2.99345 15.7263 2.99345 15.725 2.99345 15.725C1.58345 11.3225 3.15345 5.79003 8.2222 4.15628C10.6022 3.38628 13.196 3.72503 15.2935 5.04878ZM8.7972 5.94128C4.69595 7.26378 3.66595 11.675 4.7797 15.1538C6.5322 20.6063 13.456 25.015 15.296 26.1063C17.1422 25.0038 24.116 20.5463 25.8122 15.1588C26.926 11.6763 25.8922 7.26503 21.7847 5.94128C19.7947 5.30253 17.4735 5.69128 15.871 6.93128C15.536 7.18878 15.071 7.19378 14.7335 6.93878C13.036 5.66253 10.8185 5.28878 8.7972 5.94128Z" fill="#4F7B39"/>
</svg>
