<svg width="23" height="25" viewBox="0 0 23 25" fill="none" xmlns="http://www.w3.org/2000/svg">
<path fill-rule="evenodd" clip-rule="evenodd" d="M13.1459 16.0341C14.4967 16.0341 15.5962 17.1257 15.5962 18.4676V21.9187C15.5962 22.2071 15.8274 22.4382 16.1236 22.4449H18.262C19.9472 22.4449 21.3171 21.0918 21.3171 19.4291V9.64121C21.3092 9.06901 21.0366 8.53048 20.5687 8.17257L13.1717 2.27335C12.1788 1.48687 10.7898 1.48687 9.79351 2.2756L2.44698 8.17033C1.96117 8.53945 1.68854 9.07799 1.68293 9.66028V19.4291C1.68293 21.0918 3.05283 22.4449 4.738 22.4449H6.89663C7.20068 22.4449 7.44751 22.2037 7.44751 21.9075C7.44751 21.8424 7.45537 21.7774 7.46883 21.7157V18.4676C7.46883 17.1336 8.56161 16.0431 9.90234 16.0341H13.1459ZM18.262 24.1278H16.1034C14.867 24.0987 13.9133 23.1282 13.9133 21.9187V18.4676C13.9133 18.0536 13.5689 17.717 13.1459 17.717H9.90795C9.49395 17.7193 9.15176 18.057 9.15176 18.4676V21.9075C9.15176 21.9916 9.14054 22.0724 9.11698 22.1487C8.99581 23.2595 8.04663 24.1278 6.89663 24.1278H4.738C2.12498 24.1278 0 22.0197 0 19.4291V9.65243C0.0112195 8.53721 0.525073 7.51623 1.41254 6.84418L8.74449 0.959549C10.359 -0.319475 12.6085 -0.319476 14.2196 0.957305L21.6043 6.84755C22.4716 7.50838 22.9854 8.52711 23 9.62887V19.4291C23 22.0197 20.875 24.1278 18.262 24.1278Z" fill="#4F7B39"/>
</svg>
