<svg width="18" height="17" viewBox="0 0 18 17" fill="none" xmlns="http://www.w3.org/2000/svg">
<path fill-rule="evenodd" clip-rule="evenodd" d="M3.62619 5.11335C4.30528 3.79086 5.39456 2.72396 6.73087 2.07248C8.06718 1.42099 9.5786 1.21998 11.0387 1.49955C12.4989 1.77911 13.8292 2.52422 14.8303 3.62325C15.8314 4.72228 16.4496 6.11609 16.5921 7.59591C16.7347 9.07572 16.3939 10.5619 15.621 11.8318C14.848 13.1017 13.6844 14.0871 12.3045 14.6402C10.9246 15.1933 9.40257 15.2845 7.96647 14.9001C6.53037 14.5156 5.25747 13.6763 4.33844 12.5077C4.22309 12.3727 4.05999 12.2875 3.88325 12.2699C3.70652 12.2524 3.52986 12.3039 3.39025 12.4137C3.25063 12.5235 3.15888 12.683 3.1342 12.8588C3.10952 13.0347 3.15382 13.2133 3.25784 13.3573C4.36077 14.7596 5.88835 15.7668 7.61176 16.228C9.33516 16.6892 11.1616 16.5797 12.8175 15.9158C14.4735 15.2519 15.8697 14.0693 16.7971 12.5452C17.7246 11.0212 18.1333 9.23768 17.962 7.46186C17.7907 5.68604 17.0487 4.01351 15.8471 2.6948C14.6454 1.37609 13.0489 0.482192 11.2966 0.146996C9.54435 -0.188201 7.73062 0.0533547 6.12714 0.835476C4.52366 1.6176 3.21674 2.89818 2.40214 4.48541L3.62619 5.11335Z" fill="#4F7B39"/>
<path d="M5.31386 6.03397L0.500905 3.5649C0.442747 3.53509 0.377301 3.52247 0.31223 3.52851C0.247158 3.53456 0.185155 3.55901 0.133481 3.59902C0.0818075 3.63903 0.0426018 3.69293 0.0204553 3.75442C-0.00169117 3.8159 -0.00586176 3.88242 0.00843179 3.94619L0.932966 8.06948C0.944018 8.11865 0.965742 8.1648 0.9966 8.20464C1.02746 8.24449 1.0667 8.27707 1.11154 8.30007C1.15638 8.32308 1.20573 8.33595 1.2561 8.33777C1.30646 8.33959 1.35661 8.33032 1.403 8.31061L5.29142 6.65639C5.35156 6.63081 5.40316 6.58862 5.44018 6.53476C5.4772 6.48091 5.49811 6.41762 5.50047 6.35231C5.50282 6.287 5.48652 6.22238 5.45347 6.166C5.42043 6.10962 5.372 6.06382 5.31386 6.03397Z" fill="#4F7B39"/>
<path fill-rule="evenodd" clip-rule="evenodd" d="M9.21099 3.85071C9.58289 3.85071 9.8831 4.15182 9.8831 4.52282V8.48559L12.9345 10.3048C13.2526 10.4957 13.3575 10.9079 13.1675 11.2269C13.0411 11.4375 12.818 11.5549 12.5895 11.5549C12.4721 11.5549 12.3538 11.5244 12.2454 11.4608L8.86687 9.44537C8.66434 9.32349 8.53888 9.10394 8.53888 8.86736V4.52282C8.53888 4.15182 8.83998 3.85071 9.21099 3.85071Z" fill="#4F7B39"/>
</svg>
