<svg width="26" height="24" viewBox="0 0 26 24" fill="none" xmlns="http://www.w3.org/2000/svg">
<path d="M8.16393 0.000139182C8.98292 0.0243405 9.77592 0.163286 10.5442 0.417176H10.6209C10.6729 0.441176 10.7119 0.467702 10.7379 0.491701C11.0252 0.581384 11.2969 0.682435 11.5569 0.82138L12.0509 1.03611C12.2459 1.13716 12.4799 1.32537 12.6099 1.40242C12.7399 1.47695 12.8829 1.554 12.9999 1.64116C14.4442 0.568753 16.1978 -0.0122905 18.0048 0.000139182C18.8251 0.000139182 19.6441 0.11276 20.4228 0.366651C25.2211 1.88242 26.95 6.99812 25.5058 11.4696C24.6868 13.7546 23.3478 15.8401 21.5941 17.5441C19.0838 19.9061 16.3291 22.0029 13.3639 23.8092L13.0389 23.9999L12.7009 23.7966C9.72522 22.0029 6.95495 19.9061 4.42127 17.5314C2.67929 15.8274 1.339 13.7546 0.507014 11.4696C-0.961971 6.99812 0.767011 1.88241 5.61726 0.340125C5.99426 0.213811 6.38295 0.125391 6.77295 0.0761291H6.92895C7.29424 0.0243405 7.65694 0.000139182 8.02094 0.000139182H8.16393Z" fill="#4F7B39"/>
</svg>
