<svg width="28" height="28" viewBox="0 0 28 28" fill="none" xmlns="http://www.w3.org/2000/svg">
<path d="M24.3977 12.0024L20.0529 7.65764C19.8565 7.45983 19.589 7.34905 19.3102 7.34998H13.3003V8.04998H15.0503V13.3H15.7502V8.04998H19.3101C19.4031 8.04998 19.4921 8.08686 19.5579 8.15248L20.1554 8.75H18.5503C18.3646 8.75 18.1865 8.82375 18.0553 8.955C17.924 9.08625 17.8503 9.26438 17.8503 9.45V12.6C17.8503 12.7856 17.924 12.9638 18.0553 13.095C18.1865 13.2263 18.3646 13.3 18.5503 13.3H23.8003V16.1C23.8003 16.1928 23.7634 16.2819 23.6978 16.3475C23.6321 16.4131 23.5431 16.45 23.4503 16.45H22.7223C22.6098 15.6664 22.1251 14.9858 21.4215 14.6231C20.7181 14.2603 19.8824 14.2603 19.179 14.6231C18.4754 14.9858 17.9907 15.6664 17.8782 16.45H12.9222C12.8097 15.6664 12.325 14.9858 11.6214 14.6231C10.918 14.2603 10.0823 14.2603 9.37894 14.6231C8.67534 14.9858 8.19066 15.6664 8.07814 16.45H7.35018C7.1569 16.45 7.00018 16.2933 7.00018 16.1V12.95H6.30018V16.1C6.30018 16.3784 6.41081 16.6456 6.60768 16.8425C6.80456 17.0393 7.07176 17.15 7.35016 17.15H8.07812C8.15453 17.6822 8.40437 18.1743 8.78904 18.55H3.50024V19.25H20.3002C20.8888 19.2489 21.4573 19.0361 21.902 18.6506C22.3466 18.265 22.6378 17.7325 22.7223 17.15H23.4502C23.7287 17.15 23.9959 17.0394 24.1927 16.8425C24.3896 16.6456 24.5002 16.3784 24.5002 16.1V12.25C24.5002 12.1572 24.4633 12.0681 24.3977 12.0025L24.3977 12.0024ZM8.75009 16.8C8.75009 16.336 8.93447 15.8908 9.26257 15.5625C9.59085 15.2344 10.036 15.05 10.5001 15.05C10.9642 15.05 11.4093 15.2344 11.7376 15.5625C12.0657 15.8908 12.2501 16.336 12.2501 16.8C12.2501 17.2641 12.0657 17.7092 11.7376 18.0376C11.4093 18.3657 10.9642 18.55 10.5001 18.55C10.0362 18.5494 9.59133 18.3649 9.26321 18.0369C8.93524 17.7088 8.75073 17.264 8.75009 16.8ZM12.2112 18.55C12.5959 18.1744 12.8457 17.6822 12.9221 17.15H17.8781C17.9545 17.6822 18.2043 18.1744 18.589 18.55H12.2112ZM20.3 18.55C19.8359 18.55 19.3908 18.3657 19.0624 18.0376C18.7343 17.7093 18.55 17.2641 18.55 16.8C18.55 16.336 18.7343 15.8908 19.0624 15.5625C19.3907 15.2344 19.8359 15.05 20.3 15.05C20.7641 15.05 21.2092 15.2344 21.5375 15.5625C21.8656 15.8908 22.05 16.336 22.05 16.8C22.0493 17.264 21.8648 17.7088 21.5369 18.0369C21.2087 18.3649 20.7639 18.5494 20.3 18.55ZM18.55 12.6V9.45004H20.8551L23.8 12.3949V12.6L18.55 12.6Z" fill="#4F7B39"/>
<path d="M10.1499 16.4501H10.8499V17.1501H10.1499V16.4501Z" fill="#4F7B39"/>
<path d="M19.95 16.4501H20.65V17.1501H19.95V16.4501Z" fill="#4F7B39"/>
<path d="M3.5 15.4H5.25V16.1H3.5V15.4Z" fill="#4F7B39"/>
<path d="M4.19995 14H5.24995V14.7H4.19995V14Z" fill="#4F7B39"/>
<path d="M4.55005 12.6H5.25005V13.3H4.55005V12.6Z" fill="#4F7B39"/>
<path d="M8.05 12.25C9.25672 12.25 10.4141 11.7707 11.2674 10.9174C12.1206 10.0641 12.6 8.90674 12.6 7.70002C12.6 6.4933 12.1206 5.33594 11.2674 4.48266C10.4141 3.62938 9.25672 3.15002 8.05 3.15002C6.84328 3.15002 5.68592 3.62938 4.83264 4.48266C3.97936 5.33594 3.5 6.4933 3.5 7.70002C3.50141 8.90626 3.98124 10.0628 4.8342 10.9158C5.68716 11.7688 6.84372 12.2486 8.05 12.25ZM8.05 3.85002C9.07108 3.85002 10.0503 4.25566 10.7724 4.97766C11.4944 5.6997 11.9 6.6789 11.9 7.70002C11.9 8.72114 11.4944 9.70034 10.7724 10.4224C10.0503 11.1444 9.07112 11.55 8.05 11.55C7.02888 11.55 6.04968 11.1444 5.32764 10.4224C4.6056 9.70034 4.2 8.72114 4.2 7.70002C4.20125 6.67922 4.6072 5.70082 5.32892 4.97894C6.0508 4.25722 7.02924 3.8513 8.05 3.85002Z" fill="#4F7B39"/>
<path d="M8.05012 10.85C8.14293 10.85 8.23199 10.8131 8.29762 10.7475C8.52293 10.5221 10.5001 8.5016 10.5001 7C10.5001 6.12468 10.0331 5.31592 9.2751 4.87828C8.51714 4.44064 7.58306 4.44064 6.8251 4.87828C6.06714 5.31592 5.6001 6.12468 5.6001 7C5.6001 8.50156 7.5773 10.522 7.80258 10.7475C7.8682 10.8131 7.95727 10.85 8.05008 10.85H8.05012ZM8.05012 5.25002C8.51404 5.25064 8.95888 5.43518 9.287 5.76314C9.61497 6.09126 9.79948 6.5361 9.80012 7.00002C9.80012 7.89814 8.69872 9.28582 8.05012 9.99282C7.40152 9.28578 6.30012 7.89814 6.30012 7.00002C6.30074 6.5361 6.48527 6.09126 6.81324 5.76314C7.14136 5.43517 7.5862 5.25066 8.05012 5.25002Z" fill="#4F7B39"/>
<path d="M9.09996 7.00005C9.09996 6.72162 8.98934 6.45441 8.79246 6.25757C8.59558 6.06073 8.32838 5.95007 8.04998 5.95007C7.77158 5.95007 7.50434 6.0607 7.3075 6.25757C7.11066 6.45445 7 6.72165 7 7.00005C7 7.27845 7.11062 7.54569 7.3075 7.74253C7.50438 7.93937 7.77158 8.05003 8.04998 8.05003C8.32838 8.05003 8.59562 7.93941 8.79246 7.74253C8.9893 7.54566 9.09996 7.27845 9.09996 7.00005ZM7.69996 7.00005C7.69996 6.85849 7.78527 6.73083 7.91605 6.67677C8.04683 6.62255 8.1973 6.6524 8.29746 6.75255C8.39762 6.85271 8.42746 7.00318 8.37324 7.13396C8.31918 7.26474 8.19152 7.35005 8.04996 7.35005C7.85668 7.35005 7.69996 7.19333 7.69996 7.00005Z" fill="#4F7B39"/>
<path d="M16.8 14H18.2V14.7H16.8V14Z" fill="#4F7B39"/>
</svg>
