<svg width="22" height="25" viewBox="0 0 22 25" fill="none" xmlns="http://www.w3.org/2000/svg">
<path d="M11.006 0C14.2815 0 16.9744 2.5622 17.1111 5.80879H17.0792C17.083 5.90316 17.0648 5.99713 17.0259 6.08336H17.2168C18.7042 6.08336 20.2618 7.10963 20.8863 9.58714L20.9542 9.87947L21.894 17.4163C22.5703 22.2234 19.9283 24.245 16.3242 24.3306L16.0826 24.3334H5.95042C2.28772 24.3334 -0.534668 23.0048 0.0858987 17.7434L0.128217 17.4163L1.07878 9.87947C1.5475 7.21144 3.12108 6.1591 4.63725 6.08733L4.80542 6.08336H4.90097C4.88485 5.99253 4.88485 5.89961 4.90097 5.80879C5.03765 2.5622 7.73054 0 11.006 0ZM7.45188 10.134C6.85531 10.134 6.37169 10.6295 6.37169 11.2408C6.37169 11.852 6.85531 12.3475 7.45188 12.3475C8.04845 12.3475 8.53206 11.852 8.53206 11.2408L8.52365 11.1019C8.45699 10.5562 8.00256 10.134 7.45188 10.134ZM14.5271 10.134C13.9305 10.134 13.4469 10.6295 13.4469 11.2408C13.4469 11.852 13.9305 12.3475 14.5271 12.3475C15.1237 12.3475 15.6073 11.852 15.6073 11.2408C15.6073 10.6295 15.1237 10.134 14.5271 10.134ZM10.9581 1.58457C8.60644 1.58457 6.70002 3.47582 6.70002 5.80879C6.71613 5.89961 6.71613 5.99253 6.70002 6.08336H15.2695C15.2354 5.99569 15.2174 5.90272 15.2162 5.80879C15.2162 3.47582 13.3098 1.58457 10.9581 1.58457Z" fill="#4F7B39"/>
</svg>
