<svg width="19" height="19" viewBox="0 0 19 19" fill="none" xmlns="http://www.w3.org/2000/svg">
<path fill-rule="evenodd" clip-rule="evenodd" d="M9.69751 1.58337C13.2988 1.58337 16.2288 4.5355 16.2288 8.1645C16.2288 12.6255 11.1178 17.0209 9.69751 17.0209C8.27726 17.0209 3.16626 12.6255 3.16626 8.1645C3.16626 4.5355 6.09622 1.58337 9.69751 1.58337ZM9.69751 2.77087C6.75093 2.77087 4.35376 5.191 4.35376 8.1645C4.35376 11.9479 8.80609 15.6339 9.69751 15.8302C10.5889 15.6331 15.0413 11.9471 15.0413 8.1645C15.0413 5.191 12.6441 2.77087 9.69751 2.77087ZM9.6983 5.54171C11.117 5.54171 12.2712 6.69596 12.2712 8.11542C12.2712 9.53408 11.117 10.6875 9.6983 10.6875C8.27963 10.6875 7.12539 9.53408 7.12539 8.11542C7.12539 6.69596 8.27963 5.54171 9.6983 5.54171ZM9.6983 6.72921C8.93434 6.72921 8.31289 7.35067 8.31289 8.11542C8.31289 8.87937 8.93434 9.50004 9.6983 9.50004C10.4623 9.50004 11.0837 8.87937 11.0837 8.11542C11.0837 7.35067 10.4623 6.72921 9.6983 6.72921Z" fill="#4F7B39"/>
</svg>
