<svg width="18" height="18" viewBox="0 0 18 18" fill="none" xmlns="http://www.w3.org/2000/svg">
<path fill-rule="evenodd" clip-rule="evenodd" d="M11.4044 5.52624C11.4044 5.83674 11.1524 6.08874 10.8419 6.08874C10.5314 6.08874 10.2794 5.83674 10.2794 5.52624L10.2794 4.82649C10.2794 3.61224 9.29243 2.62524 8.07893 2.62524L4.42268 2.62524C3.20843 2.62524 2.22143 3.61224 2.22143 4.82649L2.22143 13.174C2.22143 14.3875 3.20843 15.3752 4.42268 15.3752L8.08568 15.3752C9.29543 15.3752 10.2794 14.3912 10.2794 13.1822L10.2794 12.475C10.2794 12.1645 10.5314 11.9125 10.8419 11.9125C11.1524 11.9125 11.4044 12.1645 11.4044 12.475L11.4044 13.1822C11.4044 15.0115 9.91568 16.5002 8.08568 16.5002L4.42268 16.5002C2.58818 16.5002 1.09643 15.0077 1.09644 13.174L1.09644 4.82649C1.09644 2.99274 2.58818 1.50024 4.42268 1.50024L8.07893 1.50024C9.91268 1.50024 11.4044 2.99274 11.4044 4.82649L11.4044 5.52624ZM16.3337 9.39819L14.1377 11.5852C13.9172 11.8042 13.5617 11.8034 13.3427 11.5837C13.1237 11.3632 13.1237 11.0077 13.3442 10.7887L14.5752 9.56199L6.34426 9.56244L6.34426 8.43744L14.5752 8.43699L13.3442 7.21194C13.2332 7.10244 13.1785 6.95769 13.1785 6.81369C13.1785 6.67044 13.2332 6.52644 13.3427 6.41694C13.5617 6.19719 13.9172 6.19569 14.1377 6.41544L16.3337 8.60169C16.546 8.81244 16.546 9.18744 16.3337 9.39819Z" fill="#4F7B39"/>
</svg>
