<svg width="17" height="18" viewBox="0 0 17 18" fill="none" xmlns="http://www.w3.org/2000/svg">
<path d="M13.4583 8.25H3.54167C2.75926 8.25 2.125 8.92157 2.125 9.75V15C2.125 15.8284 2.75926 16.5 3.54167 16.5H13.4583C14.2407 16.5 14.875 15.8284 14.875 15V9.75C14.875 8.92157 14.2407 8.25 13.4583 8.25Z" stroke="black" stroke-linecap="round" stroke-linejoin="round"/>
<path d="M4.95837 8.25V5.25C4.95837 4.25544 5.33151 3.30161 5.9957 2.59835C6.6599 1.89509 7.56073 1.5 8.50004 1.5C9.43935 1.5 10.3402 1.89509 11.0044 2.59835C11.6686 3.30161 12.0417 4.25544 12.0417 5.25V8.25" stroke="black" stroke-linecap="round" stroke-linejoin="round"/>
</svg>
