<svg width="19" height="19" viewBox="0 0 19 19" fill="none" xmlns="http://www.w3.org/2000/svg">
<path fill-rule="evenodd" clip-rule="evenodd" d="M9.71155 1.58374C10.2784 1.58374 10.8294 1.81649 11.2244 2.22103C11.6187 2.62795 11.8364 3.18607 11.8198 3.75212C11.8213 3.87957 11.8633 4.02682 11.9393 4.15587C12.0652 4.36962 12.2639 4.52003 12.4998 4.58178C12.7357 4.64037 12.9827 4.6087 13.1925 4.48441C14.2058 3.9057 15.4955 4.25245 16.0742 5.25787L16.5674 6.11207C16.58 6.13503 16.5911 6.1572 16.6006 6.18016C17.1247 7.17053 16.7748 8.41741 15.801 8.98662C15.6593 9.06816 15.5445 9.18216 15.4654 9.31991C15.3427 9.53287 15.3086 9.7862 15.3704 10.0189C15.4337 10.2564 15.5849 10.4536 15.7979 10.5755C16.2784 10.8518 16.637 11.3173 16.7803 11.8548C16.9236 12.3916 16.8453 12.9742 16.5658 13.4548L16.0401 14.3304C15.4614 15.3247 14.1718 15.6691 13.1688 15.0896C13.035 15.0128 12.8806 14.9708 12.727 14.9669H12.7223C12.4935 14.9669 12.2583 15.0642 12.0873 15.2345C11.914 15.4078 11.819 15.639 11.8205 15.8844C11.815 17.0474 10.869 17.9879 9.71155 17.9879H8.71959C7.55663 17.9879 6.61059 17.0426 6.61059 15.8797C6.60901 15.7364 6.56784 15.5875 6.49105 15.4585C6.36676 15.2416 6.16567 15.0864 5.93371 15.0247C5.70334 14.9629 5.4508 14.997 5.24338 15.1173C4.74621 15.3944 4.16117 15.4617 3.62601 15.3112C3.09163 15.16 2.63009 14.7927 2.35934 14.3058L1.86455 13.4532C1.28584 12.4494 1.63021 11.1629 2.63246 10.5834C2.91667 10.4195 3.09321 10.1139 3.09321 9.7862C3.09321 9.45845 2.91667 9.15207 2.63246 8.9882C1.62942 8.40553 1.28584 7.11591 1.86376 6.11207L2.40051 5.23095C2.9713 4.2382 4.26171 3.88828 5.26792 4.4662C5.40488 4.54774 5.55371 4.58891 5.70492 4.59049C6.19813 4.59049 6.61059 4.18357 6.61851 3.68324C6.61534 3.13145 6.83305 2.60182 7.22967 2.20203C7.62788 1.80303 8.15671 1.58374 8.71959 1.58374H9.71155ZM9.71155 2.77124H8.71959C8.47417 2.77124 8.24459 2.86703 8.07121 3.03962C7.89863 3.21299 7.80442 3.44337 7.80601 3.68878C7.78938 4.8462 6.84334 5.77799 5.6978 5.77799C5.33046 5.77403 4.97659 5.67507 4.66942 5.49141C4.23796 5.24599 3.6743 5.3972 3.42176 5.83657L2.8858 6.7177C2.64038 7.14362 2.7908 7.70649 3.2278 7.96062C3.87617 8.33587 4.28071 9.0357 4.28071 9.7862C4.28071 10.5367 3.87617 11.2357 3.22621 11.6118C2.79159 11.8635 2.64117 12.4232 2.89292 12.8587L3.39246 13.72C3.51596 13.9424 3.71784 14.1032 3.95138 14.1689C4.18413 14.2338 4.44063 14.2061 4.65438 14.0873C4.96867 13.9029 5.33442 13.8071 5.70176 13.8071C5.88305 13.8071 6.06434 13.83 6.24167 13.8775C6.77684 14.0216 7.24155 14.3794 7.51705 14.86C7.69596 15.1616 7.79492 15.5139 7.79809 15.8733C7.79809 16.3879 8.21134 16.8004 8.71959 16.8004H9.71155C10.2174 16.8004 10.6307 16.3903 10.633 15.8844C10.6299 15.3255 10.8484 14.7943 11.2482 14.3945C11.6424 14.0002 12.1934 13.7635 12.7444 13.7794C13.1054 13.7881 13.453 13.8855 13.7593 14.0596C14.2003 14.3122 14.7632 14.1617 15.0181 13.7263L15.5438 12.8499C15.6609 12.6481 15.695 12.3947 15.6324 12.1612C15.5707 11.9277 15.4155 11.725 15.2065 11.6054C14.7173 11.3236 14.3681 10.8692 14.2233 10.3245C14.08 9.79016 14.1583 9.2067 14.4378 8.72616C14.6199 8.40949 14.8867 8.1427 15.2065 7.95903C15.6356 7.70807 15.786 7.14678 15.5366 6.70978C15.5263 6.69237 15.5168 6.67416 15.5089 6.65516L15.045 5.85082C14.7925 5.41145 14.2304 5.26024 13.7894 5.5112C13.3128 5.79303 12.746 5.87378 12.2013 5.73049C11.6575 5.58957 11.2015 5.2452 10.9173 4.75912C10.7352 4.45512 10.6362 4.10124 10.633 3.74103C10.6402 3.47028 10.5452 3.22724 10.3726 3.04912C10.2008 2.87178 9.95934 2.77124 9.71155 2.77124ZM9.21905 7.1049C10.6971 7.1049 11.8996 8.30824 11.8996 9.78628C11.8996 11.2643 10.6971 12.4661 9.21905 12.4661C7.74101 12.4661 6.53847 11.2643 6.53847 9.78628C6.53847 8.30824 7.74101 7.1049 9.21905 7.1049ZM9.21905 8.2924C8.39572 8.2924 7.72597 8.96295 7.72597 9.78628C7.72597 10.6096 8.39572 11.2786 9.21905 11.2786C10.0424 11.2786 10.7121 10.6096 10.7121 9.78628C10.7121 8.96295 10.0424 8.2924 9.21905 8.2924Z" fill="#4F7B39"/>
</svg>
