<svg width="26" height="25" viewBox="0 0 26 25" fill="none" xmlns="http://www.w3.org/2000/svg">
<path fill-rule="evenodd" clip-rule="evenodd" d="M12.9982 1.31966C15.0632 0.0141199 17.8063 -0.346555 20.1761 0.412894C25.331 2.0753 26.9312 7.69496 25.4999 12.1666C23.2914 19.1896 13.8592 24.4282 13.4592 24.6479C13.317 24.7267 13.1595 24.766 13.002 24.766C12.8445 24.766 12.6883 24.7279 12.5461 24.6505C12.1486 24.4333 2.78501 19.2721 0.502857 12.1678C0.501587 12.1678 0.501587 12.1666 0.501587 12.1666C-0.930951 7.69369 0.664145 2.07276 5.81392 0.412894C8.23196 -0.369414 10.8672 -0.0252496 12.9982 1.31966ZM6.39811 2.22643C2.2313 3.57007 1.18484 8.05183 2.31639 11.5862C4.0969 17.1258 11.1313 21.6051 13.0007 22.7138C14.8765 21.5936 21.9617 17.0649 23.6851 11.5913C24.8166 8.0531 23.7664 3.57134 19.5932 2.22643C17.5714 1.57747 15.213 1.97243 13.5849 3.23225C13.2446 3.49387 12.7721 3.49895 12.4292 3.23987C10.7046 1.94322 8.45167 1.5635 6.39811 2.22643Z" fill="#4F7B39"/>
</svg>
