<svg width="25" height="25" viewBox="0 0 25 25" fill="none" xmlns="http://www.w3.org/2000/svg">
<path fill-rule="evenodd" clip-rule="evenodd" d="M12.7784 2.08386C13.5242 2.08386 14.2492 2.39011 14.769 2.9224C15.2878 3.45782 15.5742 4.1922 15.5523 4.93699C15.5544 5.1047 15.6096 5.29845 15.7096 5.46824C15.8753 5.74949 16.1367 5.9474 16.4471 6.02865C16.7575 6.10574 17.0825 6.06407 17.3586 5.90053C18.6919 5.13907 20.3888 5.59532 21.1503 6.91824L21.7992 8.0422C21.8159 8.0724 21.8305 8.10157 21.843 8.13178C22.5325 9.4349 22.0721 11.0755 20.7909 11.8245C20.6044 11.9318 20.4534 12.0818 20.3492 12.263C20.1878 12.5432 20.143 12.8766 20.2242 13.1828C20.3075 13.4953 20.5065 13.7547 20.7867 13.9151C21.419 14.2787 21.8909 14.8912 22.0794 15.5984C22.268 16.3047 22.1648 17.0714 21.7971 17.7037L21.1055 18.8557C20.344 20.1641 18.6471 20.6172 17.3273 19.8547C17.1513 19.7537 16.9482 19.6984 16.7461 19.6932H16.7398C16.4388 19.6932 16.1294 19.8214 15.9044 20.0453C15.6763 20.2734 15.5513 20.5776 15.5534 20.9005C15.5461 22.4307 14.3013 23.6682 12.7784 23.6682H11.4732C9.94296 23.6682 8.69817 22.4245 8.69817 20.8943C8.69609 20.7057 8.64192 20.5099 8.54088 20.3401C8.37734 20.0547 8.11275 19.8505 7.80754 19.7693C7.50442 19.688 7.17213 19.7328 6.89921 19.8912C6.24504 20.2557 5.47525 20.3443 4.77109 20.1464C4.06796 19.9474 3.46067 19.4641 3.10442 18.8234L2.45338 17.7016C1.69192 16.3807 2.14504 14.688 3.46379 13.9255C3.83775 13.7099 4.07004 13.3078 4.07004 12.8766C4.07004 12.4453 3.83775 12.0422 3.46379 11.8266C2.144 11.0599 1.69192 9.36303 2.45234 8.0422L3.15859 6.88282C3.90963 5.57657 5.60754 5.11615 6.9315 5.87657C7.11171 5.98386 7.30754 6.03803 7.5065 6.04011C8.15546 6.04011 8.69817 5.5047 8.70859 4.84636C8.70442 4.12032 8.99088 3.42345 9.51275 2.8974C10.0367 2.3724 10.7325 2.08386 11.4732 2.08386H12.7784ZM12.7784 3.64636H11.4732C11.1503 3.64636 10.8482 3.7724 10.62 3.99949C10.393 4.22761 10.269 4.53074 10.2711 4.85365C10.2492 6.37657 9.00442 7.60261 7.49713 7.60261C7.01379 7.5974 6.54817 7.4672 6.144 7.22553C5.57629 6.90261 4.83463 7.10157 4.50234 7.6797L3.79713 8.83907C3.47421 9.39949 3.67213 10.1401 4.24713 10.4745C5.10025 10.9682 5.63254 11.8891 5.63254 12.8766C5.63254 13.8641 5.10025 14.7839 4.24504 15.2787C3.67317 15.6099 3.47525 16.3464 3.8065 16.9193L4.46379 18.0526C4.62629 18.3453 4.89192 18.5568 5.19921 18.6432C5.50546 18.7287 5.84296 18.6922 6.12421 18.5359C6.53775 18.2932 7.019 18.1672 7.50234 18.1672C7.74088 18.1672 7.97942 18.1974 8.21275 18.2599C8.91692 18.4495 9.52838 18.9203 9.89088 19.5526C10.1263 19.9495 10.2565 20.413 10.2607 20.8859C10.2607 21.563 10.8044 22.1057 11.4732 22.1057H12.7784C13.444 22.1057 13.9878 21.5662 13.9909 20.9005C13.9867 20.1651 14.2742 19.4662 14.8003 18.9401C15.319 18.4214 16.044 18.1099 16.769 18.1307C17.244 18.1422 17.7013 18.2703 18.1044 18.4995C18.6846 18.8318 19.4253 18.6339 19.7607 18.0609L20.4523 16.9078C20.6065 16.6422 20.6513 16.3089 20.569 16.0016C20.4878 15.6943 20.2836 15.4276 20.0086 15.2703C19.3648 14.8995 18.9055 14.3016 18.7148 13.5849C18.5263 12.8818 18.6294 12.1141 18.9971 11.4818C19.2367 11.0651 19.5878 10.7141 20.0086 10.4724C20.5732 10.1422 20.7711 9.40366 20.443 8.82865C20.4294 8.80574 20.4169 8.78178 20.4065 8.75678L19.7961 7.69845C19.4638 7.12032 18.7242 6.92136 18.144 7.25157C17.5169 7.62241 16.7711 7.72865 16.0544 7.54011C15.3388 7.3547 14.7388 6.90157 14.3648 6.26199C14.1253 5.86199 13.995 5.39636 13.9909 4.9224C14.0003 4.56615 13.8753 4.24636 13.6482 4.01199C13.4221 3.77865 13.1044 3.64636 12.7784 3.64636ZM12.1304 9.34855C14.0751 9.34855 15.6574 10.9319 15.6574 12.8767C15.6574 14.8215 14.0751 16.4027 12.1304 16.4027C10.1856 16.4027 8.60327 14.8215 8.60327 12.8767C8.60327 10.9319 10.1856 9.34855 12.1304 9.34855ZM12.1304 10.9111C11.047 10.9111 10.1658 11.7933 10.1658 12.8767C10.1658 13.96 11.047 14.8402 12.1304 14.8402C13.2137 14.8402 14.0949 13.96 14.0949 12.8767C14.0949 11.7933 13.2137 10.9111 12.1304 10.9111Z" fill="black"/>
</svg>
