<svg width="7" height="11" viewBox="0 0 7 11" fill="none" xmlns="http://www.w3.org/2000/svg">
<mask id="mask0_2_1954" style="mask-type:alpha" maskUnits="userSpaceOnUse" x="-4" y="-2" width="15" height="15">
<rect x="-3.5" y="-1.75" width="14" height="14" fill="#D9D9D9"/>
</mask>
<g mask="url(#mask0_2_1954)">
<path d="M4.50625 10.5L0.583333 6.41667V5.25H2.625C3.14028 5.25 3.58517 5.08219 3.95967 4.74658C4.33378 4.41136 4.55972 3.99583 4.6375 3.5H0V2.33333H4.4625C4.29722 1.99306 4.05183 1.71344 3.72633 1.4945C3.40044 1.27594 3.03333 1.16667 2.625 1.16667H0V0H7V1.16667H5.10417C5.24028 1.33194 5.36181 1.51181 5.46875 1.70625C5.57569 1.90069 5.65833 2.10972 5.71667 2.33333H7V3.5H5.81875C5.74097 4.32639 5.40069 5.019 4.79792 5.57783C4.19514 6.13706 3.47083 6.41667 2.625 6.41667H2.20208L6.125 10.5H4.50625Z" fill="black"/>
</g>
</svg>
