<svg width="16" height="16" viewBox="0 0 16 16" fill="none" xmlns="http://www.w3.org/2000/svg">
<g clip-path="url(#clip0_2_2128)">
<path fill-rule="evenodd" clip-rule="evenodd" d="M3.10478 1.1433C3.84944 1.1533 4.38011 1.7113 5.05144 2.4173C5.21744 2.5913 5.39678 2.7813 5.59745 2.9813C6.57011 3.95464 6.29345 4.74864 6.07011 5.38597C5.82745 6.0813 5.61744 6.6813 6.87478 7.93864C8.13211 9.19597 8.73144 8.98597 9.42611 8.7413C10.0641 8.51864 10.8561 8.23997 11.8308 9.2133C12.0288 9.4113 12.2154 9.58864 12.3888 9.7533C13.0974 10.428 13.6574 10.9606 13.6669 11.7073C13.6741 12.3433 13.2874 12.9926 12.3328 13.9473L11.9101 13.6606L12.2681 14.0093C12.0568 14.226 11.4948 14.8033 10.3941 14.81H10.3741C8.71278 14.81 6.54678 13.4873 3.93611 10.8773C1.31478 8.25664 -0.00988824 6.08397 5.55683e-05 4.4193C0.00611176 3.3193 0.582778 2.75597 0.799445 2.54464L0.817939 2.52444L0.862778 2.4793C1.81944 1.52264 2.47678 1.1293 3.10478 1.1433ZM3.09211 2.1433H3.08678C2.7874 2.1433 2.33275 2.4433 1.69866 3.05923L1.57133 3.18428L1.57278 3.18397C1.57358 3.18397 1.5619 3.19645 1.54335 3.21536L1.49878 3.25997C1.33745 3.41664 1.00345 3.74264 1.00008 4.42464C0.994778 5.37864 1.62211 7.14997 4.64278 10.17C7.64878 13.1753 9.41744 13.81 10.3741 13.81H10.3881C11.0701 13.806 11.3954 13.472 11.5521 13.3113C11.5994 13.2626 11.6381 13.226 11.6654 13.204C12.3301 12.5353 12.6701 12.0386 12.6668 11.7193C12.6628 11.394 12.2581 11.01 11.6988 10.4773C11.5208 10.3086 11.3274 10.124 11.1234 9.91997C10.5941 9.39264 10.3334 9.48264 9.75678 9.6853C8.96011 9.96464 7.86878 10.3473 6.16811 8.6453C4.46678 6.94464 4.84811 5.8533 5.12611 5.05597C5.32744 4.47997 5.41945 4.21797 4.89078 3.68864C4.68411 3.48197 4.49811 3.28597 4.32678 3.10597C3.79744 2.54997 3.41545 2.14797 3.09211 2.1433ZM8.83084 3.51497C10.2182 3.7843 11.2895 4.85497 11.5595 6.24297C11.6122 6.51497 11.4355 6.77697 11.1648 6.82964C11.1322 6.83564 11.1002 6.83897 11.0682 6.83897C10.8335 6.83897 10.6248 6.67364 10.5782 6.43497C10.3862 5.4483 9.62551 4.68764 8.64018 4.4963C8.36884 4.44364 8.19218 4.18164 8.24485 3.9103C8.29751 3.63897 8.56418 3.46164 8.83084 3.51497ZM8.79091 1.1471C11.5096 1.4491 13.6209 3.55777 13.9256 6.27577C13.9562 6.55044 13.7589 6.79777 13.4849 6.82844C13.4662 6.83044 13.4469 6.83177 13.4282 6.83177C13.1769 6.83177 12.9609 6.6431 12.9322 6.38777C12.6796 4.1371 10.9316 2.39044 8.68025 2.14044C8.40625 2.10977 8.20824 1.8631 8.23891 1.58844C8.26891 1.31444 8.51358 1.11244 8.79091 1.1471Z" fill="#4F7B39"/>
</g>
<defs>
<clipPath id="clip0_2_2128">
<rect width="16" height="16" fill="white"/>
</clipPath>
</defs>
</svg>
