<svg width="14" height="14" viewBox="0 0 14 14" fill="none" xmlns="http://www.w3.org/2000/svg">
<g clip-path="url(#clip0_2_95)">
<path d="M8.23665 8.2366C8.07643 8.40854 7.88323 8.54644 7.66857 8.64209C7.4539 8.73774 7.22217 8.78917 6.9872 8.79331C6.75223 8.79746 6.51882 8.75424 6.30092 8.66622C6.08301 8.5782 5.88507 8.4472 5.71889 8.28102C5.55271 8.11485 5.42171 7.9169 5.33369 7.69899C5.24568 7.48109 5.20245 7.24769 5.2066 7.01271C5.21074 6.77774 5.26218 6.54601 5.35782 6.33134C5.45347 6.11668 5.59138 5.92348 5.76331 5.76327M10.465 10.4649C9.46782 11.225 8.25363 11.6461 6.99998 11.6666C2.91665 11.6666 0.583313 6.99993 0.583313 6.99993C1.30892 5.64771 2.31531 4.46629 3.53498 3.53493L10.465 10.4649ZM5.77498 2.47327C6.17651 2.37928 6.5876 2.3323 6.99998 2.33327C11.0833 2.33327 13.4166 6.99993 13.4166 6.99993C13.0626 7.66237 12.6403 8.28603 12.1566 8.86077L5.77498 2.47327Z" stroke="black" stroke-linecap="round" stroke-linejoin="round"/>
<path d="M0.583313 0.583252L13.4166 13.4166" stroke="black" stroke-linecap="round" stroke-linejoin="round"/>
</g>
<defs>
<clipPath id="clip0_2_95">
<rect width="14" height="14" fill="white"/>
</clipPath>
</defs>
</svg>
