<svg width="24" height="25" viewBox="0 0 24 25" fill="none" xmlns="http://www.w3.org/2000/svg">
<path fill-rule="evenodd" clip-rule="evenodd" d="M11.8002 0C14.9537 0 17.5588 2.40286 17.88 5.47604L17.9697 5.47709C19.7191 5.47709 21.846 6.63892 22.5639 9.89757L23.5158 17.2654C23.8572 19.6434 23.4301 21.5508 22.2442 22.9189C21.0643 24.2798 19.1967 25.0001 16.8428 25.0001H6.7713C4.18586 25.0001 2.38461 24.3667 1.26381 23.0649C0.138177 21.7595 -0.238239 19.8014 0.145416 17.2461L1.08163 9.97599C1.69693 6.64254 3.94698 5.47709 5.68911 5.47709C5.83951 4.09024 6.46486 2.77088 7.45694 1.78194C8.59704 0.649076 10.1691 0 11.7749 0H11.8002ZM17.9697 7.28679H5.68911C5.15706 7.28679 3.37873 7.50154 2.8684 10.2571L1.93701 17.4959C1.63419 19.5263 1.86824 20.9958 2.63435 21.885C3.3908 22.7633 4.74445 23.1904 6.7713 23.1904H16.8428C18.1072 23.1904 19.8337 22.9382 20.876 21.7342C21.7037 20.7799 21.9884 19.3586 21.723 17.5091L20.7831 10.2076C20.3826 8.40879 19.3257 7.28679 17.9697 7.28679ZM15.3188 10.6457C15.8183 10.6457 16.2514 11.0511 16.2514 11.5505C16.2514 12.05 15.8738 12.4554 15.3743 12.4554H15.3188C14.8194 12.4554 14.414 12.05 14.414 11.5505C14.414 11.0511 14.8194 10.6457 15.3188 10.6457ZM8.28505 10.6457C8.78453 10.6457 9.21765 11.0511 9.21765 11.5505C9.21765 12.05 8.83882 12.4554 8.33934 12.4554H8.28505C7.78558 12.4554 7.38021 12.05 7.38021 11.5505C7.38021 11.0511 7.78558 10.6457 8.28505 10.6457ZM11.7966 1.80969H11.7785C10.6432 1.80969 9.53688 2.26694 8.73458 3.06441C8.08104 3.71502 7.65361 4.57031 7.51534 5.47653L16.0562 5.47687C15.7462 3.40388 13.9536 1.80969 11.7966 1.80969Z" fill="#4F7B39"/>
</svg>
