<svg width="14" height="16" viewBox="0 0 14 16" fill="none" xmlns="http://www.w3.org/2000/svg">
<path d="M7.00385 0C9.08825 0 10.8019 1.60714 10.8889 3.64356H10.8686C10.871 3.70275 10.8594 3.7617 10.8347 3.81578H10.9561C11.9027 3.81578 12.8939 4.45952 13.2913 6.01353L13.3345 6.19689L13.9325 10.9244C14.3629 13.9396 12.6816 15.2076 10.3882 15.2614L10.2344 15.2631H3.78663C1.45583 15.2631 -0.340243 14.4298 0.0546629 11.1295L0.0815925 10.9244L0.686497 6.19689C0.984776 4.52337 1.98614 3.86329 2.95098 3.81828L3.058 3.81578H3.1188C3.10855 3.75881 3.10855 3.70053 3.1188 3.64356C3.20578 1.60714 4.91944 0 7.00385 0ZM4.74211 6.35656C4.36247 6.35656 4.05472 6.66736 4.05472 7.05076C4.05472 7.43415 4.36247 7.74496 4.74211 7.74496C5.12174 7.74496 5.4295 7.43415 5.4295 7.05076L5.42414 6.96368C5.38173 6.62138 5.09254 6.35656 4.74211 6.35656ZM9.24452 6.35656C8.86489 6.35656 8.55713 6.66736 8.55713 7.05076C8.55713 7.43415 8.86489 7.74496 9.24452 7.74496C9.62416 7.74496 9.93192 7.43415 9.93192 7.05076C9.93192 6.66736 9.62416 6.35656 9.24452 6.35656ZM6.97336 0.993924C5.47683 0.993924 4.26365 2.18021 4.26365 3.64356C4.27391 3.70053 4.27391 3.75881 4.26365 3.81578H9.71694C9.69529 3.76079 9.68383 3.70248 9.68307 3.64356C9.68307 2.18021 8.46989 0.993924 6.97336 0.993924Z" fill="white"/>
</svg>
