<svg width="23" height="24" viewBox="0 0 23 24" fill="none" xmlns="http://www.w3.org/2000/svg">
<path d="M7.96172 22.528V18.8587C7.96172 17.9221 8.72659 17.1627 9.67011 17.1627H13.1191C13.5722 17.1627 14.0067 17.3414 14.3271 17.6595C14.6475 17.9775 14.8275 18.4089 14.8275 18.8587V22.528C14.8246 22.9174 14.9785 23.2918 15.2548 23.5682C15.5312 23.8445 15.9072 24 16.2995 24H18.6526C19.7515 24.0028 20.8065 23.5714 21.5846 22.8009C22.3627 22.0305 22.8 20.9843 22.8 19.8934V9.44022C22.8 8.55894 22.4064 7.723 21.7255 7.15759L13.7208 0.811042C12.3284 -0.301726 10.3333 -0.265797 8.98246 0.896373L1.16041 7.15759C0.447288 7.70633 0.0210627 8.54475 0 9.44022V19.8827C0 22.1566 1.85685 24 4.1474 24H6.44674C7.26146 24 7.92358 23.3474 7.92949 22.5386L7.96172 22.528Z" fill="#4F7B39"/>
</svg>
