<svg width="24" height="25" viewBox="0 0 24 25" fill="none" xmlns="http://www.w3.org/2000/svg">
<path d="M8.04515 5.1232C8.67515 5.14236 9.28515 5.25236 9.87615 5.45336H9.93515C9.97515 5.47236 10.0052 5.49336 10.0252 5.51236C10.2462 5.58336 10.4552 5.66336 10.6552 5.77336L11.0352 5.94336C11.1852 6.02336 11.3652 6.17236 11.4652 6.23336C11.5652 6.29236 11.6752 6.35336 11.7652 6.42236C12.8762 5.57336 14.2252 5.11336 15.6152 5.1232C16.2462 5.1232 16.8762 5.21236 17.4752 5.41336C21.1662 6.61336 22.4962 10.6634 21.3852 14.2034C20.7552 16.0124 19.7252 17.6634 18.3762 19.0124C16.4452 20.8824 14.3262 22.5424 12.0452 23.9724L11.7952 24.1234L11.5352 23.9624C9.24615 22.5424 7.11515 20.8824 5.16615 19.0024C3.82615 17.6534 2.79515 16.0124 2.15515 14.2034C1.02515 10.6634 2.35515 6.61336 6.08615 5.39236C6.37615 5.29236 6.67515 5.22236 6.97515 5.18336H7.09515C7.37615 5.14236 7.65515 5.1232 7.93515 5.1232H8.04515Z" fill="#D9D9D9"/>
</svg>
